<svg id="mermaid-45dec720-647c-4fa7-bc12-646959ae970d" width="905.1875" xmlns="http://www.w3.org/2000/svg" class="flowchart" style="max-width: 841.1875px;" viewBox="-28 -28 905.1875 761.5" role="graphics-document document" aria-roledescription="flowchart-v2" xmlns:xlink="http://www.w3.org/1999/xlink" height="761.5"><rect x="-28" y="-28" width="905.1875" height="761.5" fill="#ffffff"/><style>#mermaid-45dec720-647c-4fa7-bc12-646959ae970d{font-family:ui-sans-serif,-apple-system,BlinkMacSystemFont,"Segoe UI Variable Display","Segoe UI",Helvetica,"Apple Color Emoji","Noto Sans Arabic","Noto Sans Hebrew",Arial,sans-serif,"Segoe UI Emoji","Segoe UI Symbol";font-size:16px;fill:#000000;}@keyframes edge-animation-frame{from{stroke-dashoffset:0;}}@keyframes dash{to{stroke-dashoffset:0;}}#mermaid-45dec720-647c-4fa7-bc12-646959ae970d .edge-animation-slow{stroke-dasharray:9,5!important;stroke-dashoffset:900;animation:dash 50s linear infinite;stroke-linecap:round;}#mermaid-45dec720-647c-4fa7-bc12-646959ae970d .edge-animation-fast{stroke-dasharray:9,5!important;stroke-dashoffset:900;animation:dash 20s linear infinite;stroke-linecap:round;}#mermaid-45dec720-647c-4fa7-bc12-646959ae970d .error-icon{fill:#552222;}#mermaid-45dec720-647c-4fa7-bc12-646959ae970d .error-text{fill:#552222;stroke:#552222;}#mermaid-45dec720-647c-4fa7-bc12-646959ae970d .edge-thickness-normal{stroke-width:1px;}#mermaid-45dec720-647c-4fa7-bc12-646959ae970d .edge-thickness-thick{stroke-width:3.5px;}#mermaid-45dec720-647c-4fa7-bc12-646959ae970d .edge-pattern-solid{stroke-dasharray:0;}#mermaid-45dec720-647c-4fa7-bc12-646959ae970d .edge-thickness-invisible{stroke-width:0;fill:none;}#mermaid-45dec720-647c-4fa7-bc12-646959ae970d .edge-pattern-dashed{stroke-dasharray:3;}#mermaid-45dec720-647c-4fa7-bc12-646959ae970d .edge-pattern-dotted{stroke-dasharray:2;}#mermaid-45dec720-647c-4fa7-bc12-646959ae970d .marker{fill:#666;stroke:#666;}#mermaid-45dec720-647c-4fa7-bc12-646959ae970d .marker.cross{stroke:#666;}#mermaid-45dec720-647c-4fa7-bc12-646959ae970d svg{font-family:ui-sans-serif,-apple-system,BlinkMacSystemFont,"Segoe UI Variable Display","Segoe UI",Helvetica,"Apple Color Emoji","Noto Sans Arabic","Noto Sans Hebrew",Arial,sans-serif,"Segoe UI Emoji","Segoe UI Symbol";font-size:16px;}#mermaid-45dec720-647c-4fa7-bc12-646959ae970d p{margin:0;}#mermaid-45dec720-647c-4fa7-bc12-646959ae970d .label{font-family:ui-sans-serif,-apple-system,BlinkMacSystemFont,"Segoe UI Variable Display","Segoe UI",Helvetica,"Apple Color Emoji","Noto Sans Arabic","Noto Sans Hebrew",Arial,sans-serif,"Segoe UI Emoji","Segoe UI Symbol";color:#000000;}#mermaid-45dec720-647c-4fa7-bc12-646959ae970d .cluster-label text{fill:#333;}#mermaid-45dec720-647c-4fa7-bc12-646959ae970d .cluster-label span{color:#333;}#mermaid-45dec720-647c-4fa7-bc12-646959ae970d .cluster-label span p{background-color:transparent;}#mermaid-45dec720-647c-4fa7-bc12-646959ae970d .label text,#mermaid-45dec720-647c-4fa7-bc12-646959ae970d span{fill:#000000;color:#000000;}#mermaid-45dec720-647c-4fa7-bc12-646959ae970d .node rect,#mermaid-45dec720-647c-4fa7-bc12-646959ae970d .node circle,#mermaid-45dec720-647c-4fa7-bc12-646959ae970d .node ellipse,#mermaid-45dec720-647c-4fa7-bc12-646959ae970d .node polygon,#mermaid-45dec720-647c-4fa7-bc12-646959ae970d .node path{fill:#eee;stroke:#999;stroke-width:1px;}#mermaid-45dec720-647c-4fa7-bc12-646959ae970d .rough-node .label text,#mermaid-45dec720-647c-4fa7-bc12-646959ae970d .node .label text,#mermaid-45dec720-647c-4fa7-bc12-646959ae970d .image-shape .label,#mermaid-45dec720-647c-4fa7-bc12-646959ae970d .icon-shape .label{text-anchor:middle;}#mermaid-45dec720-647c-4fa7-bc12-646959ae970d .node .katex path{fill:#000;stroke:#000;stroke-width:1px;}#mermaid-45dec720-647c-4fa7-bc12-646959ae970d .rough-node .label,#mermaid-45dec720-647c-4fa7-bc12-646959ae970d .node .label,#mermaid-45dec720-647c-4fa7-bc12-646959ae970d .image-shape .label,#mermaid-45dec720-647c-4fa7-bc12-646959ae970d .icon-shape .label{text-align:center;}#mermaid-45dec720-647c-4fa7-bc12-646959ae970d .node.clickable{cursor:pointer;}#mermaid-45dec720-647c-4fa7-bc12-646959ae970d .root .anchor path{fill:#666!important;stroke-width:0;stroke:#666;}#mermaid-45dec720-647c-4fa7-bc12-646959ae970d .arrowheadPath{fill:#333333;}#mermaid-45dec720-647c-4fa7-bc12-646959ae970d .edgePath .path{stroke:#666;stroke-width:2.0px;}#mermaid-45dec720-647c-4fa7-bc12-646959ae970d .flowchart-link{stroke:#666;fill:none;}#mermaid-45dec720-647c-4fa7-bc12-646959ae970d .edgeLabel{background-color:white;text-align:center;}#mermaid-45dec720-647c-4fa7-bc12-646959ae970d .edgeLabel p{background-color:white;}#mermaid-45dec720-647c-4fa7-bc12-646959ae970d .edgeLabel rect{opacity:0.5;background-color:white;fill:white;}#mermaid-45dec720-647c-4fa7-bc12-646959ae970d .labelBkg{background-color:rgba(255, 255, 255, 0.5);}#mermaid-45dec720-647c-4fa7-bc12-646959ae970d .cluster rect{fill:hsl(0, 0%, 98.9215686275%);stroke:#707070;stroke-width:1px;}#mermaid-45dec720-647c-4fa7-bc12-646959ae970d .cluster text{fill:#333;}#mermaid-45dec720-647c-4fa7-bc12-646959ae970d .cluster span{color:#333;}#mermaid-45dec720-647c-4fa7-bc12-646959ae970d div.mermaidTooltip{position:absolute;text-align:center;max-width:200px;padding:2px;font-family:ui-sans-serif,-apple-system,BlinkMacSystemFont,"Segoe UI Variable Display","Segoe UI",Helvetica,"Apple Color Emoji","Noto Sans Arabic","Noto Sans Hebrew",Arial,sans-serif,"Segoe UI Emoji","Segoe UI Symbol";font-size:12px;background:hsl(-160, 0%, 93.3333333333%);border:1px solid #707070;border-radius:2px;pointer-events:none;z-index:100;}#mermaid-45dec720-647c-4fa7-bc12-646959ae970d .flowchartTitleText{text-anchor:middle;font-size:18px;fill:#000000;}#mermaid-45dec720-647c-4fa7-bc12-646959ae970d rect.text{fill:none;stroke-width:0;}#mermaid-45dec720-647c-4fa7-bc12-646959ae970d .icon-shape,#mermaid-45dec720-647c-4fa7-bc12-646959ae970d .image-shape{background-color:white;text-align:center;}#mermaid-45dec720-647c-4fa7-bc12-646959ae970d .icon-shape p,#mermaid-45dec720-647c-4fa7-bc12-646959ae970d .image-shape p{background-color:white;padding:2px;}#mermaid-45dec720-647c-4fa7-bc12-646959ae970d .icon-shape rect,#mermaid-45dec720-647c-4fa7-bc12-646959ae970d .image-shape rect{opacity:0.5;background-color:white;fill:white;}#mermaid-45dec720-647c-4fa7-bc12-646959ae970d .label-icon{display:inline-block;height:1em;overflow:visible;vertical-align:-0.125em;}#mermaid-45dec720-647c-4fa7-bc12-646959ae970d .node .label-icon path{fill:currentColor;stroke:revert;stroke-width:revert;}#mermaid-45dec720-647c-4fa7-bc12-646959ae970d :root{--mermaid-font-family:"trebuchet ms",verdana,arial,sans-serif;}</style><g><marker id="mermaid-45dec720-647c-4fa7-bc12-646959ae970d_flowchart-v2-pointEnd" class="marker flowchart-v2" viewBox="0 0 10 10" refX="5" refY="5" markerUnits="userSpaceOnUse" markerWidth="8" markerHeight="8" orient="auto"><path d="M 0 0 L 10 5 L 0 10 z" class="arrowMarkerPath" style="stroke-width: 1; stroke-dasharray: 1, 0;"/></marker><marker id="mermaid-45dec720-647c-4fa7-bc12-646959ae970d_flowchart-v2-pointStart" class="marker flowchart-v2" viewBox="0 0 10 10" refX="4.5" refY="5" markerUnits="userSpaceOnUse" markerWidth="8" markerHeight="8" orient="auto"><path d="M 0 5 L 10 10 L 10 0 z" class="arrowMarkerPath" style="stroke-width: 1; stroke-dasharray: 1, 0;"/></marker><marker id="mermaid-45dec720-647c-4fa7-bc12-646959ae970d_flowchart-v2-circleEnd" class="marker flowchart-v2" viewBox="0 0 10 10" refX="11" refY="5" markerUnits="userSpaceOnUse" markerWidth="11" markerHeight="11" orient="auto"><circle cx="5" cy="5" r="5" class="arrowMarkerPath" style="stroke-width: 1; stroke-dasharray: 1, 0;"/></marker><marker id="mermaid-45dec720-647c-4fa7-bc12-646959ae970d_flowchart-v2-circleStart" class="marker flowchart-v2" viewBox="0 0 10 10" refX="-1" refY="5" markerUnits="userSpaceOnUse" markerWidth="11" markerHeight="11" orient="auto"><circle cx="5" cy="5" r="5" class="arrowMarkerPath" style="stroke-width: 1; stroke-dasharray: 1, 0;"/></marker><marker id="mermaid-45dec720-647c-4fa7-bc12-646959ae970d_flowchart-v2-crossEnd" class="marker cross flowchart-v2" viewBox="0 0 11 11" refX="12" refY="5.2" markerUnits="userSpaceOnUse" markerWidth="11" markerHeight="11" orient="auto"><path d="M 1,1 l 9,9 M 10,1 l -9,9" class="arrowMarkerPath" style="stroke-width: 2; stroke-dasharray: 1, 0;"/></marker><marker id="mermaid-45dec720-647c-4fa7-bc12-646959ae970d_flowchart-v2-crossStart" class="marker cross flowchart-v2" viewBox="0 0 11 11" refX="-1" refY="5.2" markerUnits="userSpaceOnUse" markerWidth="11" markerHeight="11" orient="auto"><path d="M 1,1 l 9,9 M 10,1 l -9,9" class="arrowMarkerPath" style="stroke-width: 2; stroke-dasharray: 1, 0;"/></marker></g><g class="subgraphs"/><g class="nodes"><g class="node default" id="flowchart-A-0" transform="translate(376.23901364776316, 39)"><rect class="basic label-container" style="" x="-83.0078125" y="-27" width="166.015625" height="54"/><g class="label" style="" transform="translate(-53.0078125, -12)"><rect/><foreignObject width="106.015625" height="24"><div xmlns="http://www.w3.org/1999/xhtml" style="display: table-cell; white-space: nowrap; line-height: 1.5; max-width: 200px; text-align: center;"><span class="nodeLabel"><p>GitLab MR 생성</p></span></div></foreignObject></g></g><g class="node default" id="flowchart-B-1" transform="translate(384.734375, 199)"><rect class="basic label-container" style="" x="-89.2578125" y="-39" width="178.515625" height="78"/><g class="label" style="" transform="translate(-59.2578125, -24)"><rect/><foreignObject width="118.515625" height="48"><div xmlns="http://www.w3.org/1999/xhtml" style="display: table-cell; white-space: nowrap; line-height: 1.5; max-width: 200px; text-align: center;"><span class="nodeLabel"><p>GitLab CI Runner<br />code_review job</p></span></div></foreignObject></g></g><g class="node default" id="flowchart-C-3" transform="translate(327.64359443924343, 430)"><rect class="basic label-container" style="" x="-66.140625" y="-39" width="132.28125" height="78"/><g class="label" style="" transform="translate(-36.140625, -24)"><rect/><foreignObject width="72.28125" height="48"><div xmlns="http://www.w3.org/1999/xhtml" style="display: table-cell; white-space: nowrap; line-height: 1.5; max-width: 200px; text-align: center;"><span class="nodeLabel"><p>GitLab API<br />사내망</p></span></div></foreignObject></g></g><g class="node default" id="flowchart-D-7" transform="translate(607.578125, 430)"><rect class="basic label-container" style="" x="-90.375" y="-39" width="180.75" height="78"/><g class="label" style="" transform="translate(-60.375, -24)"><rect/><foreignObject width="120.75" height="48"><div xmlns="http://www.w3.org/1999/xhtml" style="display: table-cell; white-space: nowrap; line-height: 1.5; max-width: 200px; text-align: center;"><span class="nodeLabel"><p>Lambda Function<br />dspCRBot</p></span></div></foreignObject></g></g><g class="node default" id="flowchart-E-9" transform="translate(348.85783270052616, 654.5)"><rect class="basic label-container" style="" x="-82.171875" y="-39" width="164.34375" height="78"/><g class="label" style="" transform="translate(-52.171875, -24)"><rect/><foreignObject width="104.34375" height="48"><div xmlns="http://www.w3.org/1999/xhtml" style="display: table-cell; white-space: nowrap; line-height: 1.5; max-width: 200px; text-align: center;"><span class="nodeLabel"><p>Bedrock Agent<br />JAVBRJICT1</p></span></div></foreignObject></g></g><g class="node default" id="flowchart-F-17" transform="translate(583.9146295755261, 642.5)"><rect class="basic label-container" style="" x="-106.34375" y="-27" width="212.6875" height="54"/><g class="label" style="" transform="translate(-76.34375, -12)"><rect/><foreignObject width="152.6875" height="24"><div xmlns="http://www.w3.org/1999/xhtml" style="display: table-cell; white-space: nowrap; line-height: 1.5; max-width: 200px; text-align: center;"><span class="nodeLabel"><p>MR에 리뷰 코멘트 표시</p></span></div></foreignObject></g></g></g><g class="edges edgePaths"><path d="M376.239,66L376.239,77.917C376.239,89.833,376.239,113.667,376.239,126.417C376.239,139.167,376.239,140.833,377.072,141.667C377.906,142.5,379.572,142.5,380.155,142.5C380.737,142.5,380.236,142.5,380.818,142.5C381.401,142.5,383.068,142.5,383.901,143.333C384.734,144.167,384.734,145.833,384.734,148.083C384.734,150.333,384.734,153.167,384.734,154.583L384.734,156" id="L_A_B_0_0" class="edge-thickness-normal edge-pattern-solid edge-thickness-normal edge-pattern-solid flowchart-link" style="" marker-end="url(#mermaid-45dec720-647c-4fa7-bc12-646959ae970d_flowchart-v2-pointEnd)"/><path d="M325.229,238L325.229,240.083C325.229,242.167,325.229,246.333,324.867,248.888C324.505,251.443,323.781,252.386,322.948,253.219C322.115,254.052,321.172,254.776,283.329,255.138C245.486,255.5,170.743,255.5,132.9,255.862C95.057,256.224,94.114,256.948,93.281,257.781C92.448,258.614,91.724,259.557,91.362,278.029C91,296.5,91,332.5,91.362,350.971C91.724,369.443,92.448,370.386,93.281,371.219C94.114,372.052,95.057,372.776,127.791,373.138C160.524,373.5,225.049,373.5,257.782,373.862C290.516,374.224,291.459,374.948,292.292,375.781C293.126,376.614,293.849,377.557,294.211,379.445C294.573,381.333,294.573,384.167,294.573,385.583L294.573,387" id="L_B_C_0_0" class="edge-thickness-normal edge-pattern-solid edge-thickness-normal edge-pattern-solid flowchart-link" style="" marker-end="url(#mermaid-45dec720-647c-4fa7-bc12-646959ae970d_flowchart-v2-pointEnd)"/><path d="M327.644,391L327.644,386C327.644,381,327.644,371,327.282,365.529C326.92,360.057,326.196,359.114,325.363,358.281C324.529,357.448,323.586,356.724,310.096,356.362C296.606,356,270.569,356,257.079,355.638C243.588,355.276,242.646,354.552,241.812,353.719C240.979,352.886,240.255,351.943,239.893,339.305C239.531,326.667,239.531,302.333,239.893,289.695C240.255,277.057,240.979,276.114,241.812,275.281C242.646,274.448,243.588,273.724,261.635,273.362C279.681,273,314.832,273,332.878,272.638C350.925,272.276,351.867,271.552,352.701,270.719C353.534,269.886,354.258,268.943,354.62,264.138C354.982,259.333,354.982,250.667,354.982,246.333L354.982,242" id="L_C_B_0_0" class="edge-thickness-normal edge-pattern-solid edge-thickness-normal edge-pattern-solid flowchart-link" style="" marker-end="url(#mermaid-45dec720-647c-4fa7-bc12-646959ae970d_flowchart-v2-pointEnd)"/><path d="M414.487,238L414.487,243C414.487,248,414.487,258,414.849,263.471C415.211,268.943,415.935,269.886,416.768,270.719C417.601,271.552,418.544,272.276,444.51,272.638C470.476,273,521.464,273,547.43,273.362C573.396,273.724,574.339,274.448,575.172,275.281C576.005,276.114,576.729,277.057,577.091,295.695C577.453,314.333,577.453,350.667,577.453,368.833L577.453,387" id="L_B_D_0_0" class="edge-thickness-normal edge-pattern-solid edge-thickness-normal edge-pattern-solid flowchart-link" style="" marker-end="url(#mermaid-45dec720-647c-4fa7-bc12-646959ae970d_flowchart-v2-pointEnd)"/><path d="M577.453,469L577.453,474C577.453,479,577.453,489,577.091,494.471C576.729,499.943,576.005,500.886,575.172,501.719C574.339,502.552,573.396,503.276,531.927,503.638C490.458,504,408.463,504,366.993,504.362C325.524,504.724,324.582,505.448,323.748,506.281C322.915,507.114,322.191,508.057,321.829,525.612C321.467,543.167,321.467,577.333,321.467,594.417L321.467,611.5" id="L_D_E_0_0" class="edge-thickness-normal edge-pattern-solid edge-thickness-normal edge-pattern-solid flowchart-link" style="" marker-end="url(#mermaid-45dec720-647c-4fa7-bc12-646959ae970d_flowchart-v2-pointEnd)"/><path d="M376.248,615.5L376.248,613.417C376.248,611.333,376.248,607.167,376.61,604.612C376.972,602.057,377.696,601.114,378.53,600.281C379.363,599.448,380.306,598.724,389.946,598.362C399.587,598,417.926,598,427.566,597.638C437.207,597.276,438.15,596.552,438.983,595.719C439.816,594.886,440.54,593.943,440.902,585.305C441.264,576.667,441.264,560.333,441.626,551.695C441.988,543.057,442.712,542.114,443.545,541.281C444.378,540.448,445.321,539.724,476.866,539.362C508.41,539,570.557,539,602.101,538.638C633.646,538.276,634.589,537.552,635.422,536.719C636.255,535.886,636.979,534.943,637.341,524.305C637.703,513.667,637.703,493.333,637.703,483.167L637.703,473" id="L_E_D_0_0" class="edge-thickness-normal edge-pattern-solid edge-thickness-normal edge-pattern-solid flowchart-link" style="" marker-end="url(#mermaid-45dec720-647c-4fa7-bc12-646959ae970d_flowchart-v2-pointEnd)"/><path d="M637.703,391L637.703,386C637.703,381,637.703,371,638.065,365.529C638.427,360.057,639.151,359.114,639.984,358.281C640.818,357.448,641.76,356.724,662.023,356.362C682.286,356,721.87,356,742.133,355.638C762.396,355.276,763.339,354.552,764.172,353.719C765.005,352.886,765.729,351.943,766.091,336.388C766.453,320.833,766.453,290.667,766.091,275.112C765.729,259.557,765.005,258.614,764.172,257.781C763.339,256.948,762.396,256.224,709.889,255.862C657.382,255.5,553.311,255.5,500.804,255.138C448.297,254.776,447.354,254.052,446.521,253.219C445.687,252.386,444.963,251.443,444.602,249.555C444.24,247.667,444.24,244.833,444.24,243.417L444.24,242" id="L_D_B_0_0" class="edge-thickness-normal edge-pattern-solid edge-thickness-normal edge-pattern-solid flowchart-link" style="" marker-end="url(#mermaid-45dec720-647c-4fa7-bc12-646959ae970d_flowchart-v2-pointEnd)"/><path d="M384.734,238L384.734,256.833C384.734,275.667,384.734,313.333,384.372,332.638C384.011,351.943,383.287,352.886,382.453,353.719C381.62,354.552,380.677,355.276,377.869,355.638C375.061,356,370.387,356,367.579,356.362C364.771,356.724,363.828,357.448,362.995,358.281C362.162,359.114,361.438,360.057,361.076,364.862C360.714,369.667,360.714,378.333,360.714,382.667L360.714,387" id="L_B_C_2_0" class="edge-thickness-normal edge-pattern-solid edge-thickness-normal edge-pattern-solid flowchart-link" style="" marker-end="url(#mermaid-45dec720-647c-4fa7-bc12-646959ae970d_flowchart-v2-pointEnd)"/><path d="M327.644,469L327.644,471.083C327.644,473.167,327.644,477.333,328.006,479.888C328.367,482.443,329.091,483.386,329.925,484.219C330.758,485.052,331.701,485.776,339.974,486.138C348.247,486.5,363.85,486.5,372.124,486.862C380.397,487.224,381.339,487.948,382.173,488.781C383.006,489.614,383.73,490.557,384.092,495.195C384.454,499.833,384.454,508.167,384.816,512.805C385.178,517.443,385.902,518.386,386.735,519.219C387.568,520.052,388.511,520.776,420.559,521.138C452.607,521.5,515.761,521.5,547.809,521.862C579.857,522.224,580.8,522.948,581.634,523.781C582.467,524.614,583.191,525.557,583.553,540.195C583.915,554.833,583.915,583.167,583.915,597.333L583.915,611.5" id="L_C_F_0_0" class="edge-thickness-normal edge-pattern-solid edge-thickness-normal edge-pattern-solid flowchart-link" style="" marker-end="url(#mermaid-45dec720-647c-4fa7-bc12-646959ae970d_flowchart-v2-pointEnd)"/></g><g class="edgeLabels"><g class="edgeLabel" transform="translate(376.2233886477632, 113)"><g class="label" transform="translate(-75.984375, -12)"><foreignObject width="151.96875" height="24"><div xmlns="http://www.w3.org/1999/xhtml" class="labelBkg" style="display: table-cell; white-space: nowrap; line-height: 1.5; max-width: 200px; text-align: center;"><span class="edgeLabel"><p>merge_request_event</p></span></div></foreignObject></g></g><g class="edgeLabel" transform="translate(90.765625, 314.5)"><g class="label" transform="translate(-78.765625, -12)"><foreignObject width="157.53125" height="24"><div xmlns="http://www.w3.org/1999/xhtml" class="labelBkg" style="display: table-cell; white-space: nowrap; line-height: 1.5; max-width: 200px; text-align: center;"><span class="edgeLabel">1. GET MR changes API</span></div></foreignObject></g></g><g class="edgeLabel" transform="translate(239.13281249999997, 314.5)"><g class="label" transform="translate(-52.1015625, -12)"><foreignObject width="104.203125" height="24"><div xmlns="http://www.w3.org/1999/xhtml" class="labelBkg" style="display: table-cell; white-space: nowrap; line-height: 1.5; max-width: 200px; text-align: center;"><span class="edgeLabel"><p>diff 데이터 반환</p></span></div></foreignObject></g></g><g class="edgeLabel" transform="translate(577.453125, 314.5)"><g class="label" transform="translate(-100, -24)"><foreignObject width="200" height="48"><div xmlns="http://www.w3.org/1999/xhtml" class="labelBkg" style="display: table; white-space: break-spaces; line-height: 1.5; max-width: 200px; text-align: center; width: 200px;"><span class="edgeLabel">2. POST dspCRBot
project_id, mr_iid, diff</span></div></foreignObject></g></g><g class="edgeLabel" transform="translate(321.36564520052616, 568.5)"><g class="label" transform="translate(-54.3984375, -12)"><foreignObject width="108.796875" height="24"><div xmlns="http://www.w3.org/1999/xhtml" class="labelBkg" style="display: table-cell; white-space: nowrap; line-height: 1.5; max-width: 200px; text-align: center;"><span class="edgeLabel">3. invoke_agent</span></div></foreignObject></g></g><g class="edgeLabel" transform="translate(441.1781452005262, 568.5)"><g class="label" transform="translate(-47.9140625, -12)"><foreignObject width="95.828125" height="24"><div xmlns="http://www.w3.org/1999/xhtml" class="labelBkg" style="display: table-cell; white-space: nowrap; line-height: 1.5; max-width: 200px; text-align: center;"><span class="edgeLabel"><p>코드 리뷰 생성</p></span></div></foreignObject></g></g><g class="edgeLabel" transform="translate(766.0703124999999, 314.5)"><g class="label" transform="translate(-71.1171875, -12)"><foreignObject width="142.234375" height="24"><div xmlns="http://www.w3.org/1999/xhtml" class="labelBkg" style="display: table-cell; white-space: nowrap; line-height: 1.5; max-width: 200px; text-align: center;"><span class="edgeLabel">4. review 텍스트 반환</span></div></foreignObject></g></g><g class="edgeLabel" transform="translate(384.34375, 314.5)"><g class="label" transform="translate(-75.609375, -12)"><foreignObject width="151.21875" height="24"><div xmlns="http://www.w3.org/1999/xhtml" class="labelBkg" style="display: table-cell; white-space: nowrap; line-height: 1.5; max-width: 200px; text-align: center;"><span class="edgeLabel">5. POST MR notes API</span></div></foreignObject></g></g><g class="edgeLabel" transform="translate(583.6880670755261, 568.5)"><g class="label" transform="translate(-55.2734375, -12)"><foreignObject width="110.546875" height="24"><div xmlns="http://www.w3.org/1999/xhtml" class="labelBkg" style="display: table-cell; white-space: nowrap; line-height: 1.5; max-width: 200px; text-align: center;"><span class="edgeLabel"><p>코멘트 등록 완료</p></span></div></foreignObject></g></g></g></svg>